<svg xmlns="http://www.w3.org/2000/svg" xmlns:xlink="http://www.w3.org/1999/xlink" width="20" height="28">
  <defs>
    <path id="a" d="M6 22h8v2a4 4 0 1 1-8 0v-2zm1 1v1a3 3 0 0 0 6 0v-1H7zm1.98-2.898a.5.5 0 0 1-.998.07l-.613-8.863a2.5 2.5 0 0 1 2.494-2.672h.274a2.5 2.5 0 0 1 2.494 2.672l-.612 8.862a.5.5 0 0 1-.998-.069l.612-8.862a1.5 1.5 0 0 0-1.496-1.603h-.274a1.5 1.5 0 0 0-1.496 1.603l.612 8.862zM0 10C0 4.477 4.477 0 10 0s10 4.477 10 10a9.996 9.996 0 0 1-5 8.662V21a2 2 0 0 1-2 2H7a2 2 0 0 1-2-2v-2.338A9.996 9.996 0 0 1 0 10zm5.5 7.797l.5.288V21a1 1 0 0 0 1 1h6a1 1 0 0 0 1-1v-2.915l.5-.288a9 9 0 1 0-8.999 0z"/>
  </defs>
  <g fill="none" fill-rule="evenodd">
    <path fill="#FFF" d="M-39-747h375v3207H-39z"/>
    <mask id="b" fill="#fff">
      <use xlink:href="#a"/>
    </mask>
    <use fill="#979797" fill-rule="nonzero" xlink:href="#a"/>
    <g fill="#FFF" mask="url(#b)">
      <path d="M-6-2h32v32H-6z"/>
      <path d="M-6-2h32v32H-6z"/>
    </g>
  </g>
</svg>
