<svg xmlns="http://www.w3.org/2000/svg" viewBox="0 0 474 474.5">
  <path fill="#933ec5" d="M345.29 321.797c6.25-6.25 6.25-16.387 0-22.633L175.585 129.461c-6.246-6.25-16.379-6.254-22.629-.008-6.25 6.25-6.25 16.379-.004 22.629l169.711 169.715c6.25 6.246 16.379 6.246 22.625 0zm0 0"/>
  <path fill="#ed539d" d="M322.648 321.777l-27.277 12.883a24.003 24.003 0 0 0-44.562-7.687 24.005 24.005 0 0 0 2.8 27.527l-33.918 16.078a49.345 49.345 0 0 0-10.16-14.879c-16.715-16.855-43.238-18.96-62.402-4.957-19.168 14.004-25.219 39.914-14.238 60.957L.25 474.5l33.758-71.281c17.61 8.43 38.726 2.922 49.972-13.035 11.247-15.957 9.329-37.7-4.53-51.446a41.113 41.113 0 0 0-11.2-7.84l39.68-83.757c17.539 5.004 36.246-2.47 45.504-18.184 9.261-15.715 6.734-35.703-6.145-48.617a42.035 42.035 0 0 0-5.52-4.64l11.2-23.602zm0 0"/>
  <path fill="#7ed63e" d="M141.64 355.73c-14.718 14.786-18.269 37.356-8.8 55.946l86.777-41.067a48.005 48.005 0 0 0-35.062-28.097 48.004 48.004 0 0 0-42.946 13.218zm0 0"/>
  <path fill="#ffcd00" d="M147.297 236.938c15.621-15.622 15.621-40.946 0-56.567a42.244 42.244 0 0 0-5.543-4.64l-33.824 71.394c14 4 29.066.102 39.367-10.188zm0 0"/>
  <path fill="#ff3051" d="M233.531 276.54c0 13.253-10.746 24-24 24-13.258 0-24-10.747-24-24 0-13.255 10.742-24 24-24 13.254 0 24 10.745 24 24zm0 0"/>
  <path fill="#ffcd00" d="M140.672 304.82c0 8.836-7.16 16-16 16-8.836 0-16-7.164-16-16s7.164-16 16-16c8.84 0 16 7.164 16 16zm0 0"/>
  <path fill="#2488ff" d="M79.418 395.332c15.621-15.621 15.621-40.95 0-56.57a39.53 39.53 0 0 0-11.145-7.864l-34.28 72.297a40.082 40.082 0 0 0 45.425-7.863zm0 0"/>
  <path fill="#d54b8d" d="M51.426 407.027a42.378 42.378 0 0 0 4.504-.289l-5.922 12.48-19.36 40.88L.25 474.5l33.758-71.281c1.363.64 2.8 1.199 4.16 1.68a40.792 40.792 0 0 0 13.258 2.128zm77.222-159.648a23.926 23.926 0 0 0 3.2-.961l-7.918 16.723-39.04 82.398c-.48-.719-.96-1.441-1.519-2.16a35.569 35.569 0 0 0-3.922-4.64 41.113 41.113 0 0 0-11.199-7.84l39.68-83.758a40.477 40.477 0 0 0 14.16 1.359c1.12-.082 2.238-.242 3.281-.402a23.584 23.584 0 0 0 3.277-.72zm26.082-56.641a16.754 16.754 0 0 0-1.12-2.078 16.42 16.42 0 0 0-1.2-2 40.252 40.252 0 0 0-10.64-10.96l11.199-23.602 16 16-11.2 23.601-1.359 2.88a40.363 40.363 0 0 0-1.68-3.84zm0 0"/>
  <path fill="#e5b800" d="M156.41 194.578l-24.562 51.84a44.058 44.058 0 0 1-6.477 1.68c-1.043.16-2.16.32-3.281.402a40.477 40.477 0 0 1-14.16-1.36l33.84-71.44a40.252 40.252 0 0 1 10.64 10.96c.473.617.88 1.29 1.2 2 .421.664.796 1.36 1.12 2.078a40.363 40.363 0 0 1 1.68 3.84zm0 0"/>
  <path fill="#207ae5" d="M84.89 345.54l-.64 1.358-28.32 59.84c-1.52.16-3.04.242-4.48.32-4.516.012-9-.718-13.282-2.16a45.306 45.306 0 0 1-4.16-1.68l34.242-72.32a41.113 41.113 0 0 1 11.2 7.84 35.569 35.569 0 0 1 3.921 4.64c.559.72 1.04 1.442 1.52 2.161zm0 0"/>
  <path fill="#c2fb3b" d="M254.777 321.797c-8.937 8.894-9.433 23.203-1.129 32.695l41.747-19.8a24 24 0 0 0-40.618-12.895zm0 0"/>
  <path fill="#ff3051" d="M386.328 48.418c0 8.836-7.16 16-16 16-8.836 0-16-7.164-16-16s7.164-16 16-16c8.84 0 16 7.164 16 16zm0 0"/>
  <path fill="#ffcd00" d="M370.328 184.418c0 8.836-7.16 16-16 16-8.836 0-16-7.164-16-16s7.164-16 16-16c8.84 0 16 7.164 16 16zm0 0"/>
  <path fill="#c2fb3b" d="M226.328 40.418c0 8.836-7.16 16-16 16-8.836 0-16-7.164-16-16s7.164-16 16-16c8.84 0 16 7.164 16 16zm0 0"/>
  <path fill="#ffcd00" d="M380.105 96.418h-14.449c-29.465-.094-55.988 17.863-66.847 45.258l-15.91 39.765a8.007 8.007 0 0 0 4.456 10.41c4.102 1.645 8.762-.351 10.407-4.456l15.902-39.778c8.445-21.308 29.078-35.277 52-35.199h14.45a71.992 71.992 0 0 0 63.558-38.2l29.86-62.343a8.01 8.01 0 0 0-.31-8.262A8.005 8.005 0 0 0 465.77.035a8.005 8.005 0 0 0-6.641 4.93l-29.711 62.008a55.933 55.933 0 0 1-49.313 29.445zm0 0"/>
  <path fill="#ff9811" d="M227.434 135.133a8 8 0 0 0 7.625 8.36h.375a8.001 8.001 0 0 0 8-7.634l1.734-37.695a55.951 55.951 0 0 1 29.824-49.082l12.801-6.75a71.706 71.706 0 0 0 30.105-30.2A8.002 8.002 0 0 0 310.5.345a7.99 7.99 0 0 0-6.77 4.355 55.76 55.76 0 0 1-23.418 23.489l-12.8 6.75a71.79 71.79 0 0 0-38.344 62.792zm0 0"/>
  <path fill="#91dc5a" d="M466.328 168.418h-15.277a47.732 47.732 0 0 0-42.93 26.535l-9.894 19.777a31.79 31.79 0 0 1-28.618 17.688h-23.28a8 8 0 0 0 0 16h23.28a47.732 47.732 0 0 0 42.93-26.535l9.895-19.778a31.798 31.798 0 0 1 28.617-17.687h15.277a8 8 0 0 0 0-16zm0 0"/>
  <path fill="#ff3051" d="M295.984 102.074a8 8 0 0 0-11.312-11.312l-8 8a8.005 8.005 0 0 0 3.535 13.496 7.994 7.994 0 0 0 7.777-2.184zm0 0"/>
  <path fill="#ff9811" d="M394.328 272.418h-16a8 8 0 0 0 0 16h16a8 8 0 0 0 0-16zm0 0"/>
  <path fill="#ffcd00" d="M436.672 250.762l-8 8a8.005 8.005 0 0 0 3.535 13.496 7.994 7.994 0 0 0 7.777-2.184l8-8a8 8 0 0 0-11.312-11.312zm0 0"/>
  <path fill="#ff9811" d="M414.754 137.258l-16 8a8.01 8.01 0 0 0-3.586 10.738 8.005 8.005 0 0 0 10.738 3.582l16-8a8 8 0 0 0 3.582-10.734 8.005 8.005 0 0 0-10.734-3.586zm0 0"/>
  <path fill="#ff3051" d="M194.328 88.418v8a8 8 0 0 0 16 0v-8a8 8 0 0 0-16 0zm0 0"/>
  <path fill="#ffcd00" d="M308.648 58.738a8.008 8.008 0 0 0-1.753 8.75 7.997 7.997 0 0 0 7.433 4.93 9.318 9.318 0 0 0 1.512-.16 4.794 4.794 0 0 0 1.531-.48 6.187 6.187 0 0 0 1.438-.72c.418-.296.82-.617 1.199-.96a8.025 8.025 0 0 0 0-11.36 8.032 8.032 0 0 0-11.36 0zm0 0"/>
  <path fill="#a25bcd" d="M261.84 15.059c.45.3.937.543 1.45.718.476.246.991.407 1.519.48a9.507 9.507 0 0 0 1.52.161 9.318 9.318 0 0 0 1.51-.16 4.794 4.794 0 0 0 1.532-.48c.488-.16.95-.403 1.36-.72.43-.28.828-.601 1.199-.96a7.79 7.79 0 0 0 1.761-8.72 7.314 7.314 0 0 0-1.761-2.64 8.62 8.62 0 0 0-1.2-.96 4.636 4.636 0 0 0-1.359-.72 4.894 4.894 0 0 0-1.531-.48 6.516 6.516 0 0 0-3.031 0 4.858 4.858 0 0 0-1.52.48c-.512.176-1 .419-1.45.72l-1.19.96a8.112 8.112 0 0 0 0 11.36zm0 0"/>
  <path fill="#2488ff" d="M270.73 145.777a4.636 4.636 0 0 0-1.359-.718 4.894 4.894 0 0 0-1.531-.48 6.516 6.516 0 0 0-3.031 0 4.858 4.858 0 0 0-1.52.48 6.28 6.28 0 0 0-1.45.718c-.413.301-.812.621-1.19.961a8.112 8.112 0 0 0 0 11.36l1.19.96c.45.301.938.544 1.45.72a4.78 4.78 0 0 0 1.52.48 9.507 9.507 0 0 0 1.52.16 9.318 9.318 0 0 0 1.51-.16 4.794 4.794 0 0 0 1.532-.48c.488-.16.95-.403 1.36-.72.43-.28.828-.601 1.199-.96a8.121 8.121 0 0 0 2.398-5.68 8.05 8.05 0 0 0-.637-3.04 7.314 7.314 0 0 0-1.761-2.64 8.62 8.62 0 0 0-1.2-.96zm0 0"/>
  <path fill="#57a4ff" d="M452.648 122.738a9.309 9.309 0 0 0-1.68 2.64 7.56 7.56 0 0 0 0 6.083 9.29 9.29 0 0 0 1.68 2.637 8.228 8.228 0 0 0 5.68 2.32 8.403 8.403 0 0 0 5.68-2.32 9.217 9.217 0 0 0 1.683-2.637 7.56 7.56 0 0 0 0-6.082 9.236 9.236 0 0 0-1.683-2.64 8.374 8.374 0 0 0-11.36 0zm0 0"/>
  <path fill="#b2fa09" d="M418.328 24.418a7.925 7.925 0 0 0 5.684-2.316 7.925 7.925 0 0 0 2.316-5.684 8.418 8.418 0 0 0-2.32-5.68 8.374 8.374 0 0 0-11.36 0 8.112 8.112 0 0 0 0 11.36 8.382 8.382 0 0 0 5.68 2.32zm0 0"/>
  <path fill="#ff3051" d="M308.648 202.738a8.008 8.008 0 0 0-1.753 8.75 7.997 7.997 0 0 0 7.433 4.93 9.318 9.318 0 0 0 1.512-.16 4.794 4.794 0 0 0 1.531-.48 6.187 6.187 0 0 0 1.438-.72l1.199-.96a8.025 8.025 0 0 0 0-11.36 8.032 8.032 0 0 0-11.36 0zm0 0"/>
  <path fill="#ed539d" d="M464.008 210.738a8.374 8.374 0 0 0-11.36 0 9.309 9.309 0 0 0-1.68 2.64 7.56 7.56 0 0 0 0 6.083 9.29 9.29 0 0 0 1.68 2.637 8.228 8.228 0 0 0 5.68 2.32 8.403 8.403 0 0 0 5.68-2.32 9.217 9.217 0 0 0 1.683-2.637 7.56 7.56 0 0 0 0-6.082 9.236 9.236 0 0 0-1.683-2.64zm0 0"/>
</svg>
