
<svg width="20px" height="28px" viewBox="0 0 20 28" version="1.1" xmlns="http://www.w3.org/2000/svg" xmlns:xlink="http://www.w3.org/1999/xlink">
    <defs>
        <path d="M6,22 L14,22 L14,24 C14,26.209139 12.209139,28 10,28 C7.790861,28 6,26.209139 6,24 L6,22 Z M7,23 L7,24 C7,25.6568542 8.34314575,27 10,27 C11.6568542,27 13,25.6568542 13,24 L13,23 L7,23 Z M8.97913267,20.1022675 C8.99816298,20.3777533 8.79026467,20.6165058 8.51477881,20.6355361 C8.23929295,20.6545664 8.00054043,20.4466681 7.98151013,20.1711823 L7.36931977,11.3090119 C7.27416826,9.93158263 8.31365979,8.73782002 9.69108908,8.6426685 C9.7484327,8.63870726 9.80589587,8.63672487 9.86337614,8.63672487 L10.1367451,8.63672487 C11.5174569,8.63672487 12.6367451,9.756013 12.6367451,11.1367249 C12.6367451,11.1942051 12.6347627,11.2516683 12.6308014,11.3090119 L12.0186111,20.1711823 C11.9995808,20.4466681 11.7608283,20.6545664 11.4853424,20.6355361 C11.2098565,20.6165058 11.0019582,20.3777533 11.0209885,20.1022675 L11.6331789,11.2400971 C11.6355556,11.2056909 11.6367451,11.171213 11.6367451,11.1367249 C11.6367451,10.3082977 10.9651722,9.63672487 10.1367451,9.63672487 L9.86337614,9.63672487 C9.82888798,9.63672487 9.79441008,9.63791431 9.76000391,9.64029105 C8.93354633,9.69738196 8.30985141,10.4136395 8.36694232,11.2400971 L8.97913267,20.1022675 Z M0,10 C0,4.4771525 4.4771525,0 10,0 C15.5228475,0 20,4.4771525 20,10 C20,13.7014118 17.9890069,16.9331309 15,18.662178 L15,21 C15,22.1045695 14.1045695,23 13,23 L7,23 C5.8954305,23 5,22.1045695 5,21 L5,18.662178 C2.01099315,16.9331309 0,13.7014118 0,10 Z M5.50072596,17.7965722 L6,18.0853866 L6,21 C6,21.5522847 6.44771525,22 7,22 L13,22 C13.5522847,22 14,21.5522847 14,21 L14,18.0853866 L14.499274,17.7965722 C17.2627931,16.1979627 19,13.2508538 19,10 C19,5.02943725 14.9705627,1 10,1 C5.02943725,1 1,5.02943725 1,10 C1,13.2508538 2.73720691,16.1979627 5.50072596,17.7965722 Z" id="path-1"></path>
    </defs>
    <g id="PROTOTIPO-1-MOBILE" stroke="none" stroke-width="1" fill="none" fill-rule="evenodd">
        <g id="Mobile-HOME-Centrato" transform="translate(-39.000000, -747.000000)">
            <rect fill="#FFFFFF" x="0" y="0" width="375" height="3207"></rect>
            <g id="icon-/-custom-/-light-small" transform="translate(33.000000, 745.000000)">
                <g id="icon-/-custom-/-fire" transform="translate(6.000000, 2.000000)">
                    <mask id="mask-2" fill="white">
                        <use xlink:href="#path-1"></use>
                    </mask>
                    <use id="Combined-Shape" fill="#979797" fill-rule="nonzero" xlink:href="#path-1"></use>
                    <g id="🎨mixin-/-fill-/-#ffffff" mask="url(#mask-2)" fill="#FFFFFF">
                        <g transform="translate(-6.000000, -2.000000)">
                            <rect x="0" y="0" width="32" height="32"></rect>
                            <rect id="#FFFFFF" stroke="none" fill-rule="evenodd" x="0" y="0" width="32" height="32"></rect>
                        </g>
                    </g>
                </g>
            </g>
        </g>
    </g>
</svg>
