<svg xmlns="http://www.w3.org/2000/svg" viewBox="0 0 15.62 15.62"><defs><style>.cls-1,.cls-4{fill:none;stroke-miterlimit:10;}.cls-1{stroke:#e30613;stroke-width:2px;}.cls-2{fill:#fff;}.cls-3{fill:#8b8c8d;}.cls-4{stroke:#fff;}</style></defs><title>Asset 7</title><g id="Layer_2" data-name="Layer 2"><g id="Layer_1-2" data-name="Layer 1"><circle class="cls-1" cx="7.5" cy="8.12" r="6.5"/><polygon class="cls-2" points="1.9 10.19 11.38 0.71 14.91 4.24 5.43 13.72 0.72 14.9 1.9 10.19"/><path class="cls-3" d="M11.38,1.41l2.83,2.83-9,9-3.77.94.94-3.77,9-9m0-1.41L1.45,9.93,0,15.59l5.66-1.41,9.93-9.93L11.38,0Z"/><polygon class="cls-3" points="0.03 15.59 3.43 14.74 0.88 12.19 0.03 15.59"/><rect class="cls-3" x="1.51" y="4.09" width="14.04" height="6" transform="translate(-2.51 8.11) rotate(-45)"/><line class="cls-4" x1="9.96" y1="1.41" x2="14.21" y2="5.66"/><line class="cls-1" x1="2.9" y1="3.52" x2="12.1" y2="12.72"/></g></g></svg>
