<svg height="512pt" viewBox="0 0 512.00035 512" width="512pt" xmlns="http://www.w3.org/2000/svg"><path d="m224.886719 333.300781c-5.855469-5.855469-15.355469-5.855469-21.214844 0l-5.304687 5.304688-39.152344-13.050781c1.730468-5.214844.539062-11.191407-3.613282-15.34375-5.855468-5.859376-15.355468-5.859376-21.210937 0l-120.425781 120.429687c-9.003906 9-13.964844 20.96875-13.964844 33.699219 0 12.730468 4.960938 24.699218 13.960938 33.699218 9 9.003907 20.96875 13.960938 33.699218 13.960938 12.730469 0 24.699219-4.957031 33.699219-13.960938l143.527344-143.523437c5.855469-5.855469 5.855469-15.355469 0-21.214844zm0 0" fill="#fef4f5"/><path d="m47.660156 512c12.730469 0 24.699219-4.957031 33.699219-13.960938l143.527344-143.523437c5.855469-5.855469 5.855469-15.355469 0-21.214844-5.859375-5.855469-15.355469-5.855469-21.214844 0l-5.304687 5.304688-18.734376-6.242188-165.671874 165.675781c9 9.003907 20.96875 13.960938 33.699218 13.960938zm0 0" fill="#d5eded"/><path d="m295.359375 264.300781c0-8.285156-6.71875-15-15-15-4.144531 0-7.894531 1.679688-10.605469 4.394531l-11.445312-11.449218c2.714844-2.710938 4.394531-6.464844 4.394531-10.605469 0-8.285156-6.714844-15-15-15l-175.546875.003906c-15.125 0-20.421875 8.851563-22 12.652344-1.574219 3.808594-4.085938 13.808594 6.613281 24.5l89.171875 89.175781c9.234375 9.238282 25.421875 15.941406 38.484375 15.941406h79.609375c17.273438 0 31.328125-14.054687 31.328125-31.332031zm0 0" fill="#00abe9"/><path d="m398.4375 225.828125c-5.925781-5.925781-13.789062-9.1875-22.136719-9.1875l-63.28125.003906c-8.285156 0-15 6.714844-15 15 0 4.140625 1.679688 7.890625 4.394531 10.605469l-11.445312 11.445312c-2.714844-2.714843-6.46875-4.398437-10.609375-4.398437-8.285156 0-15 6.71875-15 15l.003906 175.546875c0 15.128906 8.851563 20.425781 12.652344 22 1.546875.640625 4.117187 1.4375 7.339844 1.4375 4.707031 0 10.8125-1.695312 17.160156-8.046875l89.175781-89.175781c9.234375-9.234375 15.941406-25.421875 15.941406-38.480469v-79.613281c-.003906-8.347656-3.265624-16.210938-9.195312-22.136719zm0 0" fill="#b9dd39"/><path d="m296.6875 247.976562-5.722656 5.71875c-2.714844-2.714843-6.464844-4.394531-10.605469-4.394531-8.285156 0-15 6.714844-15 15l.003906 175.546875c0 15.128906 8.847657 20.425782 12.652344 22 1.546875.640625 4.113281 1.433594 7.335937 1.433594 4.710938 0 10.816407-1.695312 17.160157-8.042969l89.175781-89.175781c3.652344-3.652344 6.898438-8.394531 9.5-13.597656zm0 0" fill="#00ab5e"/><path d="m503.953125 209.488281-89.175781-89.179687c-9.238282-9.234375-25.421875-15.9375-38.480469-15.9375h-79.605469c-17.277344 0-31.332031 14.054687-31.332031 31.332031v63.277344c0 8.28125 6.714844 15 15 15 4.140625 0 7.890625-1.679688 10.605469-4.394531l11.449218 11.449218c-2.714843 2.714844-4.394531 6.464844-4.394531 10.605469 0 8.285156 6.71875 15 15 15l175.546875-.003906c15.125 0 20.421875-8.847657 22-12.648438 1.574219-3.804687 4.085938-13.804687-6.613281-24.5zm0 0" fill="#ffde46"/><path d="m503.953125 209.488281-89.175781-89.179687c-3.648438-3.652344-8.394532-6.894532-13.59375-9.496094l-104.492188 104.503906 5.722656 5.722656c-2.714843 2.710938-4.394531 6.460938-4.394531 10.605469 0 8.28125 6.71875 15 15 15l175.546875-.003906c15.125 0 20.421875-8.847656 22-12.652344 1.574219-3.804687 4.085938-13.804687-6.613281-24.5zm0 0" fill="#ff9f04"/><path d="m282.707031 1.433594c-3.804687-1.574219-13.804687-4.085938-24.5 6.613281l-89.171875 89.171875c-9.238281 9.234375-15.941406 25.421875-15.941406 38.484375v79.605469c0 17.277344 14.054688 31.332031 31.328125 31.332031l63.28125-.003906c8.285156 0 15-6.714844 15-15 0-4.140625-1.679687-7.890625-4.394531-10.605469l11.445312-11.445312c2.710938 2.714843 6.460938 4.394531 10.605469 4.394531 8.28125 0 15-6.714844 15-15v-175.546875c0-15.125-8.847656-20.421875-12.652344-22zm0 0" fill="#ff4949"/><path d="m282.707031 1.433594c-3.804687-1.574219-13.804687-4.085938-24.5 6.613281l-89.171875 89.171875c-3.652344 3.648438-6.898437 8.394531-9.5 13.597656l104.496094 104.496094 5.722656-5.726562c2.714844 2.714843 6.464844 4.394531 10.609375 4.394531 8.28125 0 15-6.714844 15-15v-175.546875c-.003906-15.125-8.851562-20.421875-12.65625-22zm0 0" fill="#f30051"/><path d="m258.308594 242.246094c2.714844-2.714844 4.394531-6.464844 4.394531-10.605469 0-8.285156-6.714844-15-15-15l-175.546875.003906c-15.128906 0-20.425781 8.847657-22 12.652344s-4.085938 13.808594 6.609375 24.5l89.175781 89.175781c3.652344 3.652344 8.394532 6.898438 13.597656 9.5l104.492188-104.503906zm0 0" fill="#0065a3"/><path d="m280.363281 183.980469c-26.28125 0-47.660156 21.378906-47.660156 47.660156s21.378906 47.660156 47.660156 47.660156c26.277344 0 47.65625-21.378906 47.65625-47.660156s-21.378906-47.660156-47.65625-47.660156zm0 0" fill="#fef4f5"/><path d="m314.042969 197.953125-67.367188 67.371094c8.628907 8.628906 20.546875 13.976562 33.6875 13.976562 26.277344 0 47.65625-21.378906 47.65625-47.660156 0-13.140625-5.34375-25.054687-13.976562-33.6875zm0 0" fill="#d5eded"/></svg>